<svg xmlns="http://www.w3.org/2000/svg" class="mp-mark pp-mark" width="600" height="503" viewBox="0 0 68 57" shape-rendering="crispEdges" aria-hidden="true"><g class="pp-bob"><rect x="32" y="0" width="4" height="2" fill="#08103a"/><rect x="30" y="2" width="2" height="4" fill="#08103a"/><rect x="32" y="2" width="4" height="4" fill="#ffd21f"/><rect x="36" y="2" width="2" height="4" fill="#08103a"/><rect x="32" y="6" width="4" height="5" fill="#08103a"/><rect x="28" y="11" width="12" height="2" fill="#08103a"/><rect x="24" y="13" width="4" height="2" fill="#08103a"/><rect x="28" y="13" width="12" height="2" fill="#f83a2c"/><rect x="40" y="13" width="4" height="2" fill="#08103a"/><rect x="22" y="15" width="2" height="2" fill="#08103a"/><rect x="24" y="15" width="20" height="2" fill="#f83a2c"/><rect x="44" y="15" width="2" height="2" fill="#08103a"/><rect x="20" y="17" width="2" height="2" fill="#08103a"/><rect x="22" y="17" width="24" height="2" fill="#f83a2c"/><rect x="46" y="17" width="2" height="2" fill="#08103a"/><rect x="18" y="19" width="2" height="2" fill="#08103a"/><rect x="20" y="19" width="28" height="2" fill="#f83a2c"/><rect x="48" y="19" width="2" height="2" fill="#08103a"/><rect x="16" y="21" width="2" height="4" fill="#08103a"/><rect x="18" y="21" width="32" height="4" fill="#f83a2c"/><rect x="50" y="21" width="2" height="4" fill="#08103a"/><rect x="14" y="25" width="2" height="4" fill="#08103a"/><rect x="16" y="25" width="36" height="4" fill="#f83a2c"/><rect x="52" y="25" width="2" height="4" fill="#08103a"/><rect x="14" y="29" width="40" height="2" fill="#08103a"/><rect x="14" y="31" width="2" height="5" fill="#08103a"/><rect x="16" y="31" width="36" height="5" fill="#f8f8f8"/><rect x="52" y="31" width="2" height="5" fill="#08103a"/><rect x="16" y="36" width="2" height="3" fill="#08103a"/><rect x="18" y="36" width="32" height="3" fill="#f8f8f8"/><rect x="50" y="36" width="2" height="3" fill="#08103a"/><rect x="18" y="39" width="2" height="3" fill="#08103a"/><rect x="20" y="39" width="28" height="3" fill="#f8f8f8"/><rect x="48" y="39" width="2" height="3" fill="#08103a"/><rect x="20" y="42" width="2" height="2" fill="#08103a"/><rect x="22" y="42" width="24" height="2" fill="#f8f8f8"/><rect x="46" y="42" width="2" height="2" fill="#08103a"/><rect x="22" y="44" width="2" height="2" fill="#08103a"/><rect x="24" y="44" width="20" height="2" fill="#f8f8f8"/><rect x="44" y="44" width="2" height="2" fill="#08103a"/><rect x="24" y="46" width="4" height="2" fill="#08103a"/><rect x="28" y="46" width="12" height="2" fill="#f8f8f8"/><rect x="40" y="46" width="4" height="2" fill="#08103a"/><rect x="28" y="48" width="12" height="2" fill="#08103a"/></g><g class="pp-ring pp-ring-1"><rect x="14" y="39" width="2" height="2" fill="#80dcf8"/><rect x="52" y="39" width="2" height="2" fill="#80dcf8"/><rect x="12" y="41" width="4" height="1" fill="#80dcf8"/><rect x="52" y="41" width="4" height="1" fill="#80dcf8"/><rect x="12" y="42" width="2" height="1" fill="#80dcf8"/><rect x="54" y="42" width="2" height="1" fill="#80dcf8"/><rect x="10" y="43" width="2" height="4" fill="#80dcf8"/><rect x="56" y="43" width="2" height="4" fill="#80dcf8"/><rect x="12" y="47" width="3" height="1" fill="#80dcf8"/><rect x="53" y="47" width="3" height="1" fill="#80dcf8"/><rect x="12" y="48" width="7" height="1" fill="#80dcf8"/><rect x="49" y="48" width="7" height="1" fill="#80dcf8"/><rect x="15" y="49" width="4" height="1" fill="#80dcf8"/><rect x="49" y="49" width="4" height="1" fill="#80dcf8"/><rect x="19" y="50" width="4" height="1" fill="#80dcf8"/><rect x="45" y="50" width="4" height="1" fill="#80dcf8"/><rect x="19" y="51" width="30" height="1" fill="#80dcf8"/><rect x="23" y="52" width="22" height="1" fill="#80dcf8"/></g><g class="pp-ring pp-ring-2"><rect x="11" y="34" width="3" height="2" fill="#80dcf8"/><rect x="54" y="34" width="3" height="2" fill="#80dcf8"/><rect x="7" y="36" width="4" height="2" fill="#80dcf8"/><rect x="57" y="36" width="4" height="2" fill="#80dcf8"/><rect x="4" y="38" width="3" height="1" fill="#80dcf8"/><rect x="61" y="38" width="3" height="1" fill="#80dcf8"/><rect x="2" y="39" width="5" height="1" fill="#80dcf8"/><rect x="61" y="39" width="5" height="1" fill="#80dcf8"/><rect x="2" y="40" width="2" height="1" fill="#80dcf8"/><rect x="64" y="40" width="2" height="1" fill="#80dcf8"/><rect x="0" y="41" width="4" height="1" fill="#80dcf8"/><rect x="64" y="41" width="4" height="1" fill="#80dcf8"/><rect x="0" y="42" width="3" height="5" fill="#80dcf8"/><rect x="65" y="42" width="3" height="5" fill="#80dcf8"/><rect x="2" y="47" width="2" height="2" fill="#80dcf8"/><rect x="64" y="47" width="2" height="2" fill="#80dcf8"/><rect x="4" y="49" width="3" height="1" fill="#80dcf8"/><rect x="61" y="49" width="3" height="1" fill="#80dcf8"/><rect x="7" y="50" width="4" height="2" fill="#80dcf8"/><rect x="57" y="50" width="4" height="2" fill="#80dcf8"/><rect x="10" y="52" width="4" height="1" fill="#80dcf8"/><rect x="54" y="52" width="4" height="1" fill="#80dcf8"/><rect x="14" y="53" width="6" height="1" fill="#80dcf8"/><rect x="48" y="53" width="6" height="1" fill="#80dcf8"/><rect x="14" y="54" width="40" height="1" fill="#80dcf8"/><rect x="20" y="55" width="28" height="2" fill="#80dcf8"/></g></svg>